<svg width="141" height="67" viewBox="0 0 141 67" fill="none" xmlns="http://www.w3.org/2000/svg">
<path opacity="0.9" d="M59.928 52.48C56.888 52.48 54.696 51.888 53.352 50.704C52.04 49.488 51.384 47.472 51.384 44.656V32.704H46.056V27.04H51.384V18.88H58.104V27.04H66.216V32.704H58.104V43.024C58.104 44.432 58.328 45.392 58.776 45.904C59.256 46.384 60.152 46.624 61.464 46.624C62.328 46.624 63.16 46.544 63.96 46.384C64.792 46.224 65.544 46 66.216 45.712V51.568C65.192 51.888 64.168 52.112 63.144 52.24C62.12 52.4 61.048 52.48 59.928 52.48ZM81 52.48C77.448 52.48 74.84 51.52 73.176 49.6C71.512 47.648 70.68 44.608 70.68 40.48V38.56C70.68 34.432 71.512 31.408 73.176 29.488C74.84 27.536 77.448 26.56 81 26.56C84.552 26.56 87.16 27.536 88.824 29.488C90.488 31.408 91.32 34.432 91.32 38.56V40.48C91.32 44.608 90.488 47.648 88.824 49.6C87.16 51.52 84.552 52.48 81 52.48ZM81 46.624C82.312 46.624 83.24 46.128 83.784 45.136C84.328 44.144 84.6 42.432 84.6 40V39.04C84.6 36.608 84.328 34.896 83.784 33.904C83.24 32.912 82.312 32.416 81 32.416C79.688 32.416 78.76 32.912 78.216 33.904C77.672 34.896 77.4 36.608 77.4 39.04V40C77.4 42.432 77.672 44.144 78.216 45.136C78.76 46.128 79.688 46.624 81 46.624ZM105.816 52.48C103.128 52.48 100.968 52.032 99.336 51.136C97.704 50.24 96.504 48.816 95.736 46.864C95 44.88 94.632 42.272 94.632 39.04C94.632 36 94.936 33.568 95.544 31.744C96.152 29.92 97.128 28.608 98.472 27.808C99.816 26.976 101.608 26.56 103.848 26.56C105.128 26.56 106.376 26.688 107.592 26.944C108.808 27.2 109.96 27.616 111.048 28.192L109.176 33.76C108.088 33.216 107.192 32.848 106.488 32.656C105.816 32.432 105.16 32.32 104.52 32.32C103.688 32.32 103.032 32.528 102.552 32.944C102.072 33.36 101.736 34.064 101.544 35.056C101.352 36.048 101.256 37.424 101.256 39.184C101.256 41.168 101.368 42.72 101.592 43.84C101.816 44.928 102.216 45.696 102.792 46.144C103.368 46.592 104.168 46.816 105.192 46.816C106.792 46.816 108.104 46.384 109.128 45.52L107.688 48.544V16.96H114.312V50.944C113.256 51.392 111.992 51.76 110.52 52.048C109.048 52.336 107.48 52.48 105.816 52.48ZM129 52.48C125.448 52.48 122.84 51.52 121.176 49.6C119.512 47.648 118.68 44.608 118.68 40.48V38.56C118.68 34.432 119.512 31.408 121.176 29.488C122.84 27.536 125.448 26.56 129 26.56C132.552 26.56 135.16 27.536 136.824 29.488C138.488 31.408 139.32 34.432 139.32 38.56V40.48C139.32 44.608 138.488 47.648 136.824 49.6C135.16 51.52 132.552 52.48 129 52.48ZM129 46.624C130.312 46.624 131.24 46.128 131.784 45.136C132.328 44.144 132.6 42.432 132.6 40V39.04C132.6 36.608 132.328 34.896 131.784 33.904C131.24 32.912 130.312 32.416 129 32.416C127.688 32.416 126.76 32.912 126.216 33.904C125.672 34.896 125.4 36.608 125.4 39.04V40C125.4 42.432 125.672 44.144 126.216 45.136C126.76 46.128 127.688 46.624 129 46.624Z" fill="#1A1A1A"/>
<path d="M22.7864 48.9602H3.62974V27.6386H19.7623L23.392 23.5986H0V53.0001H26.4159V50.9801V42.119L22.7864 46.159V48.9602Z" fill="#1A1A1A"/>
<path d="M10.7876 29.9965L7.05444 34.1522L13.1318 40.9157L16.865 45.0714L20.5981 40.9157L34.7589 25.1557L31.0251 21L16.8655 36.76L10.7876 29.9965Z" fill="#1A1A1A"/>
</svg>
